<svg xmlns="http://www.w3.org/2000/svg" xmlns:xlink="http://www.w3.org/1999/xlink" width="500" zoomAndPan="magnify" viewBox="0 0 375 374.999991" height="500" preserveAspectRatio="xMidYMid meet" version="1.0"><defs><g/><clipPath id="d87453b1f4"><path d="M 84 84 L 291 84 L 291 291 L 84 291 Z M 84 84 " clip-rule="nonzero"/></clipPath><clipPath id="2f8cfe58b7"><path d="M 72.796875 187.5 L 187.878906 72.417969 L 302.960938 187.5 L 187.878906 302.582031 Z M 72.796875 187.5 " clip-rule="nonzero"/></clipPath><clipPath id="0102c41410"><path d="M 89.769531 204.46875 L 170.53125 285.230469 C 179.902344 294.601562 195.097656 294.601562 204.472656 285.230469 L 285.230469 204.46875 C 294.605469 195.097656 294.605469 179.902344 285.230469 170.527344 L 204.472656 89.769531 C 195.097656 80.394531 179.902344 80.394531 170.53125 89.769531 L 89.769531 170.527344 C 80.398438 179.902344 80.398438 195.097656 89.769531 204.46875 Z M 89.769531 204.46875 " clip-rule="nonzero"/></clipPath><clipPath id="be002a6a22"><path d="M 73.859375 187.5 L 187.878906 73.476562 L 301.902344 187.5 L 187.878906 301.519531 Z M 73.859375 187.5 " clip-rule="nonzero"/></clipPath><clipPath id="45be6a3301"><path d="M 91.042969 170.527344 L 170.53125 91.042969 C 179.902344 81.667969 195.097656 81.667969 204.472656 91.042969 L 283.957031 170.527344 C 293.332031 179.902344 293.332031 195.097656 283.957031 204.46875 L 204.472656 283.957031 C 195.097656 293.328125 179.902344 293.328125 170.53125 283.957031 L 91.042969 204.46875 C 81.667969 195.097656 81.667969 179.902344 91.042969 170.527344 Z M 91.042969 170.527344 " clip-rule="nonzero"/></clipPath><clipPath id="332c8cf0b1"><path d="M 72.796875 187.5 L 187.351562 72.949219 L 301.902344 187.5 L 187.351562 302.050781 Z M 72.796875 187.5 " clip-rule="nonzero"/></clipPath><clipPath id="e4264afe22"><path d="M 82 82 L 293 82 L 293 293 L 82 293 Z M 82 82 " clip-rule="nonzero"/></clipPath><clipPath id="9cdfa4d2da"><path d="M 72.796875 187.5 L 187.878906 72.417969 L 302.960938 187.5 L 187.878906 302.582031 Z M 72.796875 187.5 " clip-rule="nonzero"/></clipPath><clipPath id="3b64e6585f"><path d="M 89.769531 204.46875 L 170.53125 285.230469 C 179.902344 294.601562 195.097656 294.601562 204.472656 285.230469 L 285.230469 204.46875 C 294.605469 195.097656 294.605469 179.902344 285.230469 170.527344 L 204.472656 89.769531 C 195.097656 80.394531 179.902344 80.394531 170.53125 89.769531 L 89.769531 170.527344 C 80.398438 179.902344 80.398438 195.097656 89.769531 204.46875 Z M 89.769531 204.46875 " clip-rule="nonzero"/></clipPath><clipPath id="afe6e2b55b"><path d="M 72.796875 187.5 L 187.351562 72.949219 L 301.902344 187.5 L 187.351562 302.050781 Z M 72.796875 187.5 " clip-rule="nonzero"/></clipPath><clipPath id="3ee363ebc3"><path d="M 72.796875 187.5 L 187.878906 72.417969 L 302.960938 187.5 L 187.878906 302.578125 Z M 72.796875 187.5 " clip-rule="nonzero"/></clipPath><clipPath id="6c8833f100"><path d="M 89.769531 204.46875 L 170.527344 285.230469 C 179.902344 294.601562 195.097656 294.601562 204.46875 285.230469 L 285.230469 204.46875 C 294.601562 195.097656 294.601562 179.902344 285.230469 170.527344 L 204.46875 89.769531 C 195.097656 80.398438 179.902344 80.398438 170.527344 89.769531 L 89.769531 170.527344 C 80.398438 179.902344 80.398438 195.097656 89.769531 204.46875 Z M 89.769531 204.46875 " clip-rule="nonzero"/></clipPath><clipPath id="39ba23692d"><path d="M 92 92 L 283 92 L 283 283 L 92 283 Z M 92 92 " clip-rule="nonzero"/></clipPath><clipPath id="05750cf3af"><path d="M 81.433594 187.5 L 187.5 81.433594 L 293.566406 187.5 L 187.5 293.566406 Z M 81.433594 187.5 " clip-rule="nonzero"/></clipPath><clipPath id="933558d140"><path d="M 98.40625 204.46875 L 170.53125 276.59375 C 179.902344 285.96875 195.097656 285.96875 204.46875 276.59375 L 276.59375 204.46875 C 285.96875 195.097656 285.96875 179.902344 276.59375 170.53125 L 204.46875 98.40625 C 195.097656 89.03125 179.902344 89.03125 170.53125 98.40625 L 98.40625 170.53125 C 89.03125 179.902344 89.03125 195.097656 98.40625 204.46875 Z M 98.40625 204.46875 " clip-rule="nonzero"/></clipPath><clipPath id="58d9f85bf6"><path d="M 82.496094 187.5 L 187.5 82.496094 L 292.503906 187.5 L 187.5 292.503906 Z M 82.496094 187.5 " clip-rule="nonzero"/></clipPath><clipPath id="243da005de"><path d="M 99.675781 170.53125 L 170.53125 99.675781 C 179.902344 90.304688 195.097656 90.304688 204.46875 99.675781 L 275.324219 170.53125 C 284.695312 179.902344 284.695312 195.097656 275.324219 204.46875 L 204.46875 275.324219 C 195.097656 284.695312 179.902344 284.695312 170.53125 275.324219 L 99.675781 204.46875 C 90.304688 195.097656 90.304688 179.902344 99.675781 170.53125 Z M 99.675781 170.53125 " clip-rule="nonzero"/></clipPath><clipPath id="b4a169a43c"><path d="M 81.433594 187.5 L 187.5 81.433594 L 293.566406 187.5 L 187.5 293.566406 Z M 81.433594 187.5 " clip-rule="nonzero"/></clipPath><clipPath id="492b7d2082"><path d="M 91 91 L 284 91 L 284 284 L 91 284 Z M 91 91 " clip-rule="nonzero"/></clipPath><clipPath id="47388930df"><path d="M 81.433594 187.5 L 187.5 81.433594 L 293.566406 187.5 L 187.5 293.566406 Z M 81.433594 187.5 " clip-rule="nonzero"/></clipPath><clipPath id="c47f74b2ae"><path d="M 98.40625 204.46875 L 170.53125 276.59375 C 179.902344 285.96875 195.097656 285.96875 204.46875 276.59375 L 276.59375 204.46875 C 285.96875 195.097656 285.96875 179.902344 276.59375 170.53125 L 204.46875 98.40625 C 195.097656 89.03125 179.902344 89.03125 170.53125 98.40625 L 98.40625 170.53125 C 89.03125 179.902344 89.03125 195.097656 98.40625 204.46875 Z M 98.40625 204.46875 " clip-rule="nonzero"/></clipPath><clipPath id="2add8ebf35"><path d="M 81.433594 187.5 L 187.5 81.433594 L 293.566406 187.5 L 187.5 293.566406 Z M 81.433594 187.5 " clip-rule="nonzero"/></clipPath><clipPath id="3577b88000"><path d="M 98.40625 204.46875 L 170.53125 276.59375 C 179.902344 285.96875 195.097656 285.96875 204.46875 276.59375 L 276.59375 204.46875 C 285.96875 195.097656 285.96875 179.902344 276.59375 170.53125 L 204.46875 98.40625 C 195.097656 89.03125 179.902344 89.03125 170.53125 98.40625 L 98.40625 170.53125 C 89.03125 179.902344 89.03125 195.097656 98.40625 204.46875 Z M 98.40625 204.46875 " clip-rule="nonzero"/></clipPath></defs><rect x="-37.5" width="450" fill="#ffffff" y="-37.499999" height="449.999989" fill-opacity="1"/><rect x="-37.5" width="450" fill="#ffffff" y="-37.499999" height="449.999989" fill-opacity="1"/><g clip-path="url(#d87453b1f4)"><g clip-path="url(#2f8cfe58b7)"><g clip-path="url(#0102c41410)"><g clip-path="url(#be002a6a22)"><g clip-path="url(#45be6a3301)"><g clip-path="url(#332c8cf0b1)"><path fill="#0081fb" d="M 244.441406 132.519531 C 244.832031 134.136719 244.386719 135.769531 243.933594 137.371094 C 244.992188 137.5625 245.820312 138.421875 246.367188 139.355469 C 246.910156 140.285156 247.25 141.328125 247.792969 142.265625 C 248.335938 143.199219 249.359375 144.125 250.417969 144.328125 C 249.855469 144.941406 249.832031 145.910156 250.132812 146.691406 C 250.4375 147.472656 251.003906 148.113281 251.542969 148.753906 C 252.082031 149.394531 252.609375 150.082031 252.804688 150.890625 L 252.820312 150.882812 C 254.003906 150.371094 255.242188 149.847656 256.53125 149.9375 C 256.90625 149.964844 257.285156 150.046875 257.625 150.199219 C 258.402344 150.5625 258.964844 151.292969 259.289062 152.085938 C 259.613281 152.882812 259.734375 153.742188 259.855469 154.59375 C 260.804688 154.589844 262.113281 154.34375 262.96875 154.765625 C 263.507812 155.035156 263.960938 155.457031 264.445312 155.820312 C 266.15625 157.113281 268.371094 157.730469 269.835938 159.300781 L 269.839844 159.300781 C 269.992188 159.460938 270.007812 159.703125 269.953125 159.917969 C 269.902344 160.128906 269.796875 160.324219 269.730469 160.527344 C 269.496094 161.242188 269.785156 162.027344 270.207031 162.648438 C 270.632812 163.269531 271.1875 163.792969 271.597656 164.425781 C 272.429688 165.707031 272.476562 167.378906 272.597656 168.90625 C 273.464844 169.003906 274.339844 169.105469 275.132812 169.460938 C 275.925781 169.8125 276.632812 170.46875 276.824219 171.316406 C 277.0625 172.351562 276.40625 173.617188 275.871094 174.535156 C 276.925781 174.519531 278.066406 174.523438 278.914062 175.15625 C 279.5 175.597656 279.863281 176.277344 280.445312 176.726562 C 280.945312 177.109375 281.578125 177.296875 282.207031 177.347656 C 282.835938 177.398438 283.472656 177.332031 284.101562 177.269531 C 284.414062 178.835938 285.824219 180.121094 287.214844 180.917969 C 288.601562 181.71875 290.144531 182.214844 291.53125 183.023438 C 293.300781 184.050781 294.773438 185.574219 295.746094 187.371094 C 294.3125 189.699219 292.140625 191.878906 289.683594 193.085938 C 288.558594 193.636719 287.355469 194.042969 286.300781 194.726562 C 285.242188 195.40625 284.226562 196.484375 284.054688 197.722656 C 283.199219 197.515625 282.277344 197.589844 281.46875 197.933594 C 280.53125 198.332031 279.78125 199.066406 278.953125 199.664062 C 278.125 200.261719 277.027344 200.75 276.023438 200.550781 C 276.605469 201.472656 276.960938 202.535156 277.054688 203.625 C 277.085938 204.011719 277.078125 204.429688 276.84375 204.746094 C 276.667969 204.980469 276.394531 205.113281 276.125 205.230469 C 275.113281 205.675781 273.957031 205.957031 272.863281 206.148438 C 272.464844 206.507812 272.371094 207.097656 272.378906 207.632812 C 272.386719 208.167969 272.480469 208.71875 272.363281 209.238281 C 272.058594 210.578125 270.539062 211.289062 269.988281 212.546875 C 269.535156 213.574219 269.609375 214.902344 269.886719 215.992188 C 269.40625 216.03125 268.980469 216.304688 268.613281 216.613281 C 268.246094 216.925781 267.917969 217.28125 267.507812 217.535156 C 266.898438 217.925781 266.167969 218.066406 265.527344 218.394531 C 264.617188 218.863281 263.929688 219.683594 263.019531 220.140625 C 261.988281 220.664062 260.78125 220.671875 259.621094 220.667969 C 259.441406 221.925781 259.230469 222.378906 258.722656 223.550781 C 258.523438 224.019531 258.273438 224.5 257.835938 224.765625 C 257.472656 224.984375 257.027344 225.023438 256.605469 225.023438 C 255.359375 225.027344 254.054688 224.734375 252.894531 224.269531 C 252.453125 225.652344 250.96875 226.4375 250.300781 227.730469 C 249.835938 228.632812 249.804688 229.824219 250.246094 230.742188 C 249.277344 230.765625 248.488281 231.550781 248.039062 232.40625 C 247.585938 233.261719 247.367188 234.222656 246.917969 235.078125 C 246.304688 236.238281 245.265625 237.164062 244.042969 237.632812 L 243.863281 237.445312 C 244.761719 238.984375 244.949219 240.917969 244.367188 242.597656 C 244.203125 243.070312 243.964844 243.542969 243.5625 243.839844 C 243.222656 244.085938 242.796875 244.1875 242.378906 244.253906 C 240.863281 244.507812 239.296875 244.445312 237.800781 244.078125 C 236.964844 245.253906 236.113281 246.449219 234.773438 246.980469 C 234.089844 247.253906 233.328125 247.324219 232.660156 247.628906 C 231.609375 248.113281 230.875 249.214844 230.824219 250.371094 C 230.117188 249.90625 229.125 249.921875 228.335938 250.222656 C 227.542969 250.527344 226.871094 251.066406 226.210938 251.597656 C 225.550781 252.128906 224.878906 252.667969 224.082031 252.960938 C 224.859375 253.925781 225.179688 254.945312 225.238281 256.183594 C 225.261719 256.683594 225.214844 257.214844 224.921875 257.617188 C 224.730469 257.878906 224.453125 258.0625 224.171875 258.21875 C 223.160156 258.804688 222.039062 259.199219 220.886719 259.382812 C 220.167969 260.847656 220.664062 262.636719 219.789062 264.011719 C 219.378906 264.65625 218.710938 265.117188 218.296875 265.761719 C 217.972656 266.269531 217.820312 266.859375 217.53125 267.390625 C 217.027344 268.320312 216.109375 269.039062 215.851562 270.066406 C 214.742188 269.636719 213.285156 269.835938 212.246094 270.414062 C 211.632812 270.753906 211.121094 271.246094 210.53125 271.628906 C 209.410156 272.355469 207.683594 272.65625 206.363281 272.453125 C 206.332031 273.253906 206.328125 273.402344 206.125 274.179688 C 205.917969 274.957031 205.507812 275.699219 204.867188 276.175781 C 204.28125 276.609375 203.523438 276.785156 202.800781 276.714844 C 202.074219 276.648438 201.152344 276.253906 200.574219 275.8125 C 200.828125 276.921875 200.464844 278.132812 199.746094 279.015625 C 199.253906 279.621094 198.609375 280.089844 198.167969 280.730469 C 197.554688 281.632812 197.398438 283.082031 197.78125 284.097656 C 196.617188 284.273438 195.652344 285.109375 194.941406 286.050781 C 193.796875 287.5625 193.140625 289.378906 192.191406 291.019531 C 191.097656 292.910156 189.023438 295.007812 187.390625 295.730469 C 185.589844 294.761719 184.070312 293.285156 183.042969 291.515625 C 182.238281 290.132812 181.738281 288.585938 180.9375 287.199219 C 180.140625 285.8125 178.859375 284.398438 177.285156 284.085938 C 177.351562 283.457031 177.417969 282.824219 177.363281 282.195312 C 177.3125 281.5625 177.132812 280.933594 176.742188 280.429688 C 176.296875 279.851562 175.613281 279.488281 175.175781 278.898438 C 174.542969 278.054688 174.539062 276.914062 174.550781 275.859375 C 173.636719 276.398438 172.371094 277.050781 171.335938 276.8125 C 170.488281 276.617188 169.832031 275.910156 169.476562 275.121094 C 169.121094 274.328125 169.019531 273.445312 168.925781 272.585938 C 167.398438 272.464844 165.730469 272.417969 164.441406 271.582031 C 163.8125 271.171875 163.292969 270.617188 162.667969 270.195312 C 162.046875 269.769531 161.261719 269.484375 160.546875 269.714844 C 160.339844 269.78125 160.144531 269.890625 159.933594 269.941406 C 159.722656 269.992188 159.480469 269.976562 159.320312 269.824219 L 159.316406 269.824219 C 157.75 268.363281 157.128906 266.144531 155.839844 264.429688 C 155.476562 263.945312 155.050781 263.496094 154.78125 262.953125 C 154.359375 262.101562 154.609375 260.796875 154.609375 259.839844 C 153.757812 259.726562 152.898438 259.601562 152.105469 259.273438 C 151.308594 258.949219 150.574219 258.390625 150.21875 257.609375 C 150.058594 257.269531 149.980469 256.890625 149.957031 256.515625 C 149.863281 255.234375 150.386719 253.988281 150.902344 252.808594 L 150.910156 252.792969 C 150.097656 252.59375 149.414062 252.0625 148.769531 251.527344 C 148.132812 250.988281 147.488281 250.421875 146.710938 250.121094 C 145.933594 249.820312 144.964844 249.839844 144.347656 250.40625 C 144.140625 249.34375 143.21875 248.320312 142.28125 247.777344 C 141.347656 247.238281 140.304688 246.898438 139.375 246.351562 C 138.441406 245.808594 137.582031 244.980469 137.390625 243.917969 C 135.789062 244.371094 134.15625 244.820312 132.539062 244.425781 C 131.929688 244.28125 131.320312 243.988281 130.96875 243.476562 C 130.699219 243.085938 130.597656 242.605469 130.535156 242.128906 C 130.4375 241.359375 130.429688 240.582031 130.519531 239.804688 C 130.582031 239.289062 130.679688 238.765625 130.617188 238.25 C 130.558594 237.734375 130.300781 237.203125 129.828125 236.980469 C 129.183594 236.464844 128.503906 235.75 128.128906 235.007812 C 127.710938 234.179688 127.652344 233.199219 127.207031 232.378906 C 126.703125 231.445312 125.691406 230.761719 124.632812 230.691406 C 124.832031 230.199219 125.035156 229.6875 125 229.15625 C 124.96875 228.679688 124.75 228.238281 124.507812 227.828125 C 123.835938 226.675781 122.96875 225.644531 122.113281 224.625 C 122.03125 224.523438 121.9375 224.414062 121.808594 224.386719 C 121.679688 224.355469 121.296875 224.578125 121.3125 224.710938 C 120.023438 225.5 118.265625 225.449219 117.019531 224.582031 C 115.777344 223.71875 115.121094 222.085938 115.417969 220.601562 C 114.152344 220.890625 112.75 220.578125 111.597656 219.984375 C 110.445312 219.386719 109.433594 218.554688 108.386719 217.785156 C 107.339844 217.019531 106.21875 216.304688 104.960938 215.988281 C 105.144531 214.695312 105.402344 213.363281 104.792969 212.269531 C 104.355469 211.464844 103.644531 210.839844 103.164062 210.058594 C 102.492188 208.984375 102.292969 207.632812 102.609375 206.414062 C 101.75 206.3125 100.75 206.0625 99.976562 205.667969 C 99.203125 205.277344 98.53125 204.609375 98.324219 203.765625 C 98.054688 202.699219 98.601562 201.464844 99.1875 200.527344 L 99.21875 200.496094 C 98.5625 200.59375 98.597656 200.597656 97.945312 200.492188 C 97.152344 200.355469 96.433594 199.925781 95.785156 199.449219 C 95.136719 198.96875 94.523438 198.433594 93.816406 198.042969 C 93.441406 197.640625 92.765625 197.386719 92.226562 197.5 C 91.875 197.578125 91.503906 197.773438 91.164062 197.640625 C 90.945312 197.554688 90.796875 197.34375 90.742188 197.117188 C 90.6875 196.894531 90.710938 196.609375 90.777344 196.382812 C 89.167969 194.867188 87.054688 194.027344 85.140625 192.917969 C 82.789062 191.5625 80.691406 189.773438 78.988281 187.660156 C 79.71875 186.023438 82.085938 183.878906 83.976562 182.785156 C 85.617188 181.839844 87.433594 181.179688 88.945312 180.039062 C 89.882812 179.328125 90.71875 178.363281 90.898438 177.199219 C 91.917969 177.582031 93.367188 177.429688 94.265625 176.8125 C 94.910156 176.371094 95.378906 175.722656 95.980469 175.234375 C 96.871094 174.511719 98.074219 174.148438 99.1875 174.40625 C 98.746094 173.824219 98.355469 172.902344 98.28125 172.175781 C 98.214844 171.449219 98.394531 170.695312 98.820312 170.109375 C 99.296875 169.464844 100.042969 169.0625 100.816406 168.855469 C 101.589844 168.644531 101.738281 168.640625 102.542969 168.613281 C 102.34375 167.289062 102.640625 165.566406 103.367188 164.445312 C 103.75 163.859375 104.242188 163.34375 104.582031 162.730469 C 105.164062 161.6875 105.363281 160.242188 104.929688 159.128906 C 105.957031 158.863281 106.671875 157.949219 107.605469 157.445312 C 108.132812 157.160156 108.726562 157.003906 109.234375 156.679688 C 109.882812 156.265625 110.339844 155.601562 110.984375 155.1875 C 112.359375 154.3125 114.152344 154.8125 115.613281 154.089844 C 115.796875 152.9375 116.191406 151.816406 116.777344 150.804688 C 116.9375 150.523438 117.117188 150.246094 117.378906 150.054688 C 117.78125 149.761719 118.3125 149.710938 118.8125 149.738281 C 120.046875 149.804688 121.070312 150.121094 122.035156 150.898438 C 122.332031 150.101562 122.867188 149.425781 123.398438 148.765625 C 123.929688 148.105469 124.46875 147.433594 124.773438 146.644531 C 125.078125 145.851562 125.089844 144.859375 124.625 144.15625 C 125.78125 144.105469 126.882812 143.367188 127.367188 142.320312 C 127.675781 141.648438 127.746094 140.890625 128.015625 140.207031 C 128.550781 138.867188 129.742188 138.015625 130.917969 137.179688 C 130.550781 135.679688 130.492188 134.117188 130.742188 132.597656 C 130.8125 132.179688 130.910156 131.757812 131.15625 131.414062 C 131.457031 131.007812 131.925781 130.773438 132.398438 130.609375 C 134.082031 130.027344 136.015625 130.214844 137.550781 131.113281 L 137.363281 130.933594 C 137.835938 129.710938 138.757812 128.671875 139.917969 128.058594 C 140.773438 127.609375 141.730469 127.390625 142.589844 126.941406 C 143.445312 126.488281 144.222656 125.699219 144.253906 124.730469 C 145.167969 125.175781 146.363281 125.148438 147.269531 124.679688 C 148.558594 124.007812 149.34375 122.523438 150.726562 122.082031 C 150.265625 120.921875 149.972656 119.621094 149.972656 118.375 C 149.972656 117.949219 150.011719 117.503906 150.230469 117.140625 C 150.496094 116.703125 150.976562 116.457031 151.445312 116.253906 C 152.613281 115.753906 153.070312 115.535156 154.328125 115.355469 C 154.324219 114.199219 154.332031 112.996094 154.855469 111.957031 C 155.3125 111.046875 156.136719 110.355469 156.601562 109.449219 C 156.929688 108.8125 157.074219 108.078125 157.460938 107.46875 C 157.71875 107.0625 158.074219 106.734375 158.382812 106.363281 C 158.691406 105.996094 158.960938 105.566406 159.003906 105.089844 C 160.09375 105.367188 161.421875 105.449219 162.449219 104.988281 C 163.707031 104.429688 164.421875 102.914062 165.757812 102.613281 C 166.28125 102.492188 166.828125 102.589844 167.363281 102.597656 C 167.898438 102.609375 168.488281 102.511719 168.851562 102.113281 C 169.042969 101.027344 169.328125 99.867188 169.765625 98.851562 C 169.882812 98.582031 170.015625 98.308594 170.25 98.132812 C 170.5625 97.898438 170.984375 97.886719 171.375 97.921875 C 172.460938 98.015625 173.523438 98.375 174.445312 98.953125 C 174.25 97.953125 174.734375 96.851562 175.332031 96.023438 C 175.929688 95.199219 176.660156 94.449219 177.0625 93.507812 C 177.40625 92.699219 177.480469 91.777344 177.273438 90.921875 C 178.515625 90.753906 179.59375 89.738281 180.269531 88.679688 C 180.953125 87.621094 181.359375 86.417969 181.910156 85.292969 C 183.117188 82.839844 185.363281 80.390625 187.695312 78.953125 C 189.804688 80.65625 191.59375 82.753906 192.953125 85.105469 C 194.058594 87.023438 194.894531 89.132812 196.417969 90.742188 C 196.636719 90.671875 196.921875 90.652344 197.152344 90.707031 C 197.382812 90.757812 197.59375 90.910156 197.675781 91.128906 C 197.808594 91.46875 197.609375 91.835938 197.535156 92.191406 C 197.421875 92.730469 197.675781 93.402344 198.078125 93.78125 C 198.46875 94.484375 199.003906 95.097656 199.480469 95.75 C 199.957031 96.402344 200.386719 97.113281 200.523438 97.90625 C 200.632812 98.558594 200.628906 98.527344 200.527344 99.179688 L 200.5625 99.148438 C 201.5 98.566406 202.726562 98.023438 203.800781 98.289062 C 204.640625 98.5 205.308594 99.167969 205.703125 99.941406 C 206.09375 100.714844 206.34375 101.714844 206.445312 102.574219 C 207.667969 102.253906 209.019531 102.460938 210.089844 103.125 C 210.867188 103.609375 211.496094 104.316406 212.300781 104.757812 C 213.398438 105.363281 214.730469 105.109375 216.019531 104.925781 C 216.332031 106.1875 217.050781 107.304688 217.820312 108.351562 C 218.585938 109.398438 219.421875 110.40625 220.015625 111.5625 C 220.613281 112.714844 220.925781 114.113281 220.632812 115.382812 C 222.121094 115.085938 223.75 115.746094 224.617188 116.984375 C 225.480469 118.226562 225.535156 119.984375 224.742188 121.277344 C 224.613281 121.261719 224.386719 121.644531 224.417969 121.769531 C 224.453125 121.898438 224.554688 121.988281 224.65625 122.078125 C 225.679688 122.9375 226.710938 123.796875 227.859375 124.472656 C 228.273438 124.710938 228.714844 124.929688 229.1875 124.964844 C 229.71875 125 230.230469 124.792969 230.722656 124.59375 C 230.792969 125.65625 231.476562 126.667969 232.414062 127.171875 C 233.230469 127.617188 234.210938 127.675781 235.042969 128.09375 C 235.777344 128.464844 236.496094 129.144531 237.011719 129.792969 C 237.234375 130.261719 237.765625 130.523438 238.285156 130.582031 C 238.800781 130.644531 239.320312 130.542969 239.839844 130.484375 C 240.609375 130.398438 241.390625 130.402344 242.164062 130.5 C 242.636719 130.558594 243.117188 130.664062 243.507812 130.929688 C 244.003906 131.300781 244.289062 131.910156 244.441406 132.519531 Z M 244.441406 132.519531 " fill-opacity="1" fill-rule="nonzero"/><path fill="#0081fb" d="M 72.796875 187.5 L 187.5 72.800781 L 302.199219 187.5 L 187.5 302.199219 Z M 72.796875 187.5 " fill-opacity="1" fill-rule="nonzero"/></g></g></g></g></g></g><g clip-path="url(#e4264afe22)"><g clip-path="url(#9cdfa4d2da)"><g clip-path="url(#3b64e6585f)"><g clip-path="url(#afe6e2b55b)"><g clip-path="url(#3ee363ebc3)"><g clip-path="url(#6c8833f100)"><path stroke-linecap="butt" transform="matrix(0.53033, -0.53033, 0.53033, 0.53033, 72.798823, 187.499284)" fill="none" stroke-linejoin="miter" d="M 0.00117174 31.999102 L -0.00251111 184.281172 C 0.00117174 201.955158 14.327449 216.281436 31.997753 216.281436 L 184.283506 216.281436 C 201.953809 216.281436 216.280087 201.955158 216.283769 184.281172 L 216.280087 31.999102 C 216.280087 14.328799 201.953809 0.00252092 184.279823 -0.00116192 L 32.001436 -0.00116192 C 14.327449 0.00252092 0.00117174 14.328799 0.00117174 31.999102 Z M 0.00117174 31.999102 " stroke="#0081fb" stroke-width="8" stroke-opacity="1" stroke-miterlimit="4"/></g></g></g></g></g></g><g clip-path="url(#39ba23692d)"><g clip-path="url(#05750cf3af)"><g clip-path="url(#933558d140)"><g clip-path="url(#58d9f85bf6)"><g clip-path="url(#243da005de)"><g clip-path="url(#b4a169a43c)"><path fill="#0081fb" d="M 240.152344 136.660156 C 240.515625 138.15625 240.105469 139.664062 239.683594 141.144531 C 240.667969 141.324219 241.429688 142.117188 241.933594 142.980469 C 242.4375 143.84375 242.753906 144.804688 243.253906 145.671875 C 243.753906 146.535156 244.703125 147.390625 245.683594 147.578125 C 245.160156 148.148438 245.140625 149.042969 245.417969 149.765625 C 245.703125 150.488281 246.222656 151.078125 246.722656 151.671875 C 247.21875 152.261719 247.707031 152.898438 247.890625 153.648438 L 247.90625 153.640625 C 249 153.167969 250.144531 152.683594 251.335938 152.765625 C 251.683594 152.792969 252.03125 152.863281 252.347656 153.007812 C 253.066406 153.34375 253.585938 154.019531 253.882812 154.753906 C 254.1875 155.488281 254.296875 156.285156 254.410156 157.070312 C 255.285156 157.066406 256.5 156.839844 257.289062 157.230469 C 257.789062 157.476562 258.203125 157.871094 258.652344 158.207031 C 260.238281 159.402344 262.28125 159.972656 263.640625 161.421875 L 263.640625 161.425781 C 263.78125 161.570312 263.796875 161.796875 263.746094 161.992188 C 263.699219 162.191406 263.601562 162.371094 263.539062 162.558594 C 263.324219 163.21875 263.589844 163.945312 263.984375 164.519531 C 264.375 165.097656 264.886719 165.578125 265.265625 166.164062 C 266.035156 167.347656 266.082031 168.894531 266.191406 170.308594 C 266.992188 170.398438 267.804688 170.488281 268.539062 170.816406 C 269.269531 171.144531 269.921875 171.753906 270.101562 172.535156 C 270.320312 173.492188 269.714844 174.664062 269.21875 175.511719 C 270.195312 175.496094 271.25 175.5 272.03125 176.085938 C 272.574219 176.492188 272.914062 177.125 273.449219 177.535156 C 273.910156 177.894531 274.5 178.0625 275.078125 178.113281 C 275.660156 178.160156 276.25 178.097656 276.828125 178.039062 C 277.117188 179.488281 278.421875 180.675781 279.707031 181.414062 C 280.992188 182.152344 282.417969 182.613281 283.699219 183.359375 C 285.335938 184.3125 286.699219 185.722656 287.597656 187.382812 C 286.273438 189.535156 284.261719 191.550781 281.992188 192.664062 C 280.949219 193.175781 279.839844 193.554688 278.863281 194.183594 C 277.886719 194.8125 276.945312 195.808594 276.789062 196.957031 C 275.996094 196.761719 275.144531 196.828125 274.394531 197.148438 C 273.527344 197.519531 272.832031 198.195312 272.070312 198.75 C 271.304688 199.304688 270.289062 199.753906 269.359375 199.570312 C 269.898438 200.421875 270.230469 201.40625 270.3125 202.410156 C 270.34375 202.769531 270.335938 203.15625 270.121094 203.449219 C 269.957031 203.664062 269.703125 203.789062 269.453125 203.894531 C 268.515625 204.304688 267.449219 204.566406 266.4375 204.742188 C 266.070312 205.078125 265.980469 205.621094 265.992188 206.117188 C 266 206.613281 266.082031 207.121094 265.976562 207.605469 C 265.695312 208.839844 264.289062 209.5 263.78125 210.660156 C 263.359375 211.613281 263.425781 212.839844 263.6875 213.847656 C 263.242188 213.886719 262.847656 214.136719 262.507812 214.421875 C 262.167969 214.710938 261.863281 215.039062 261.484375 215.277344 C 260.921875 215.632812 260.246094 215.765625 259.652344 216.070312 C 258.8125 216.5 258.175781 217.261719 257.335938 217.6875 C 256.382812 218.167969 255.265625 218.175781 254.195312 218.171875 C 254.027344 219.335938 253.832031 219.753906 253.363281 220.835938 C 253.175781 221.269531 252.945312 221.714844 252.542969 221.960938 C 252.207031 222.164062 251.796875 222.199219 251.402344 222.199219 C 250.25 222.203125 249.046875 221.929688 247.972656 221.503906 C 247.5625 222.78125 246.191406 223.507812 245.574219 224.699219 C 245.144531 225.535156 245.113281 226.636719 245.523438 227.488281 C 244.628906 227.507812 243.898438 228.234375 243.480469 229.027344 C 243.0625 229.820312 242.863281 230.707031 242.445312 231.5 C 241.878906 232.570312 240.917969 233.425781 239.789062 233.859375 L 239.621094 233.6875 C 240.449219 235.109375 240.625 236.894531 240.089844 238.449219 C 239.933594 238.890625 239.714844 239.324219 239.34375 239.597656 C 239.027344 239.828125 238.632812 239.921875 238.25 239.980469 C 236.847656 240.21875 235.398438 240.160156 234.015625 239.820312 C 233.242188 240.910156 232.453125 242.011719 231.214844 242.503906 C 230.582031 242.753906 229.878906 242.820312 229.257812 243.101562 C 228.289062 243.550781 227.609375 244.570312 227.5625 245.640625 C 226.910156 245.207031 225.992188 245.222656 225.261719 245.5 C 224.527344 245.785156 223.90625 246.28125 223.296875 246.773438 C 222.6875 247.265625 222.0625 247.761719 221.328125 248.035156 C 222.046875 248.929688 222.34375 249.867188 222.398438 251.015625 C 222.421875 251.476562 222.378906 251.96875 222.105469 252.339844 C 221.929688 252.578125 221.671875 252.75 221.414062 252.898438 C 220.476562 253.4375 219.441406 253.800781 218.375 253.972656 C 217.710938 255.328125 218.167969 256.980469 217.359375 258.25 C 216.980469 258.847656 216.359375 259.273438 215.980469 259.871094 C 215.679688 260.339844 215.539062 260.886719 215.273438 261.375 C 214.804688 262.238281 213.957031 262.902344 213.714844 263.851562 C 212.691406 263.457031 211.347656 263.640625 210.382812 264.171875 C 209.820312 264.484375 209.34375 264.941406 208.796875 265.296875 C 207.761719 265.96875 206.167969 266.246094 204.945312 266.058594 C 204.917969 266.800781 204.914062 266.9375 204.722656 267.65625 C 204.53125 268.375 204.152344 269.0625 203.5625 269.5 C 203.019531 269.902344 202.320312 270.0625 201.652344 270 C 200.980469 269.9375 200.125 269.574219 199.589844 269.164062 C 199.828125 270.191406 199.492188 271.308594 198.824219 272.125 C 198.371094 272.6875 197.773438 273.121094 197.367188 273.714844 C 196.796875 274.546875 196.652344 275.886719 197.007812 276.828125 C 195.929688 276.988281 195.039062 277.761719 194.382812 278.632812 C 193.324219 280.03125 192.71875 281.710938 191.839844 283.226562 C 190.828125 284.976562 188.910156 286.914062 187.398438 287.585938 C 185.734375 286.6875 184.328125 285.324219 183.378906 283.6875 C 182.636719 282.40625 182.171875 280.976562 181.433594 279.695312 C 180.695312 278.410156 179.507812 277.101562 178.054688 276.816406 C 178.117188 276.234375 178.179688 275.648438 178.128906 275.066406 C 178.078125 274.484375 177.914062 273.898438 177.554688 273.4375 C 177.140625 272.898438 176.507812 272.566406 176.101562 272.019531 C 175.519531 271.238281 175.515625 270.183594 175.527344 269.207031 C 174.679688 269.707031 173.511719 270.308594 172.550781 270.089844 C 171.769531 269.910156 171.164062 269.257812 170.835938 268.523438 C 170.507812 267.792969 170.414062 266.976562 170.324219 266.179688 C 168.910156 266.066406 167.371094 266.027344 166.179688 265.253906 C 165.597656 264.875 165.117188 264.359375 164.539062 263.96875 C 163.964844 263.578125 163.238281 263.3125 162.578125 263.527344 C 162.386719 263.589844 162.203125 263.6875 162.011719 263.734375 C 161.8125 263.785156 161.589844 263.769531 161.441406 263.628906 L 161.441406 263.625 C 159.988281 262.273438 159.417969 260.226562 158.222656 258.640625 C 157.886719 258.191406 157.496094 257.777344 157.246094 257.273438 C 156.855469 256.484375 157.085938 255.277344 157.085938 254.398438 C 156.300781 254.289062 155.503906 254.171875 154.769531 253.871094 C 154.035156 253.570312 153.355469 253.054688 153.027344 252.332031 C 152.878906 252.015625 152.804688 251.667969 152.78125 251.320312 C 152.695312 250.136719 153.179688 248.984375 153.65625 247.890625 L 153.664062 247.878906 C 152.914062 247.691406 152.28125 247.203125 151.6875 246.707031 C 151.09375 246.210938 150.5 245.683594 149.78125 245.40625 C 149.0625 245.128906 148.167969 245.148438 147.59375 245.671875 C 147.40625 244.6875 146.550781 243.742188 145.6875 243.242188 C 144.824219 242.742188 143.859375 242.425781 142.996094 241.921875 C 142.136719 241.417969 141.339844 240.652344 141.160156 239.671875 C 139.683594 240.089844 138.171875 240.503906 136.675781 240.140625 C 136.113281 240.007812 135.550781 239.738281 135.222656 239.261719 C 134.976562 238.902344 134.878906 238.457031 134.824219 238.019531 C 134.734375 237.304688 134.726562 236.585938 134.808594 235.871094 C 134.867188 235.390625 134.957031 234.910156 134.902344 234.429688 C 134.84375 233.953125 134.609375 233.464844 134.171875 233.253906 C 133.574219 232.78125 132.945312 232.117188 132.601562 231.433594 C 132.210938 230.664062 132.15625 229.757812 131.746094 229.003906 C 131.28125 228.136719 130.34375 227.503906 129.363281 227.441406 C 129.550781 226.984375 129.738281 226.511719 129.703125 226.019531 C 129.675781 225.582031 129.472656 225.175781 129.25 224.792969 C 128.628906 223.726562 127.828125 222.773438 127.039062 221.828125 C 126.960938 221.734375 126.875 221.636719 126.753906 221.609375 C 126.636719 221.582031 126.28125 221.789062 126.296875 221.910156 C 125.101562 222.640625 123.480469 222.59375 122.328125 221.792969 C 121.175781 220.992188 120.570312 219.484375 120.84375 218.109375 C 119.675781 218.378906 118.378906 218.089844 117.3125 217.539062 C 116.246094 216.988281 115.308594 216.21875 114.34375 215.507812 C 113.375 214.796875 112.335938 214.136719 111.175781 213.84375 C 111.34375 212.648438 111.585938 211.417969 111.019531 210.402344 C 110.613281 209.664062 109.957031 209.082031 109.511719 208.359375 C 108.894531 207.367188 108.707031 206.117188 109.003906 204.992188 C 108.203125 204.894531 107.28125 204.664062 106.566406 204.300781 C 105.851562 203.9375 105.230469 203.324219 105.039062 202.542969 C 104.789062 201.554688 105.296875 200.414062 105.835938 199.546875 L 105.863281 199.519531 C 105.257812 199.609375 105.289062 199.613281 104.6875 199.511719 C 103.953125 199.390625 103.289062 198.992188 102.691406 198.550781 C 102.089844 198.105469 101.523438 197.613281 100.871094 197.25 C 100.519531 196.878906 99.898438 196.644531 99.402344 196.75 C 99.074219 196.820312 98.730469 197 98.414062 196.878906 C 98.214844 196.800781 98.074219 196.605469 98.027344 196.394531 C 97.976562 196.1875 98 195.921875 98.0625 195.714844 C 96.570312 194.3125 94.617188 193.539062 92.847656 192.511719 C 90.671875 191.257812 88.734375 189.601562 87.15625 187.648438 C 87.832031 186.136719 90.023438 184.152344 91.773438 183.140625 C 93.289062 182.265625 94.964844 181.65625 96.367188 180.601562 C 97.234375 179.941406 98.007812 179.050781 98.171875 177.972656 C 99.113281 178.332031 100.453125 178.1875 101.285156 177.617188 C 101.878906 177.207031 102.3125 176.609375 102.871094 176.15625 C 103.691406 175.488281 104.808594 175.152344 105.835938 175.390625 C 105.425781 174.855469 105.066406 174.003906 105 173.332031 C 104.9375 172.660156 105.101562 171.960938 105.496094 171.417969 C 105.9375 170.820312 106.625 170.449219 107.34375 170.257812 C 108.058594 170.066406 108.195312 170.0625 108.9375 170.035156 C 108.757812 168.8125 109.027344 167.21875 109.703125 166.183594 C 110.058594 165.640625 110.511719 165.164062 110.824219 164.597656 C 111.363281 163.632812 111.546875 162.292969 111.144531 161.265625 C 112.097656 161.019531 112.757812 160.175781 113.621094 159.707031 C 114.109375 159.445312 114.65625 159.300781 115.125 159 C 115.726562 158.617188 116.148438 158.003906 116.746094 157.621094 C 118.019531 156.8125 119.675781 157.273438 121.027344 156.605469 C 121.195312 155.539062 121.558594 154.503906 122.101562 153.566406 C 122.25 153.304688 122.417969 153.050781 122.660156 152.875 C 123.03125 152.601562 123.523438 152.558594 123.984375 152.582031 C 125.125 152.640625 126.070312 152.933594 126.964844 153.652344 C 127.238281 152.917969 127.730469 152.292969 128.222656 151.683594 C 128.714844 151.074219 129.214844 150.453125 129.496094 149.71875 C 129.777344 148.988281 129.789062 148.070312 129.359375 147.417969 C 130.429688 147.375 131.445312 146.691406 131.894531 145.722656 C 132.179688 145.101562 132.242188 144.398438 132.496094 143.765625 C 132.988281 142.53125 134.09375 141.742188 135.175781 140.964844 C 134.835938 139.582031 134.785156 138.136719 135.015625 136.730469 C 135.078125 136.34375 135.171875 135.953125 135.398438 135.636719 C 135.675781 135.261719 136.113281 135.042969 136.546875 134.894531 C 138.101562 134.351562 139.890625 134.527344 141.3125 135.359375 L 141.140625 135.191406 C 141.574219 134.0625 142.429688 133.097656 143.5 132.535156 C 144.289062 132.117188 145.179688 131.914062 145.96875 131.5 C 146.761719 131.082031 147.484375 130.351562 147.507812 129.457031 C 148.355469 129.867188 149.460938 129.839844 150.296875 129.40625 C 151.488281 128.789062 152.21875 127.417969 153.496094 127.007812 C 153.066406 125.933594 152.796875 124.730469 152.796875 123.578125 C 152.796875 123.183594 152.832031 122.773438 153.035156 122.4375 C 153.28125 122.035156 153.726562 121.804688 154.160156 121.617188 C 155.238281 121.152344 155.664062 120.953125 156.824219 120.789062 C 156.820312 119.71875 156.828125 118.605469 157.3125 117.644531 C 157.738281 116.804688 158.5 116.164062 158.925781 115.328125 C 159.230469 114.734375 159.363281 114.058594 159.722656 113.496094 C 159.960938 113.121094 160.289062 112.816406 160.574219 112.472656 C 160.863281 112.132812 161.109375 111.734375 161.148438 111.292969 C 162.15625 111.550781 163.386719 111.625 164.335938 111.199219 C 165.5 110.683594 166.15625 109.28125 167.394531 109.003906 C 167.878906 108.894531 168.386719 108.980469 168.878906 108.992188 C 169.375 109 169.921875 108.910156 170.253906 108.542969 C 170.433594 107.539062 170.695312 106.464844 171.101562 105.527344 C 171.210938 105.277344 171.332031 105.023438 171.550781 104.859375 C 171.835938 104.644531 172.226562 104.636719 172.585938 104.667969 C 173.59375 104.753906 174.574219 105.082031 175.429688 105.621094 C 175.246094 104.695312 175.695312 103.675781 176.25 102.910156 C 176.804688 102.148438 177.476562 101.453125 177.847656 100.585938 C 178.167969 99.835938 178.234375 98.984375 178.042969 98.191406 C 179.195312 98.039062 180.1875 97.097656 180.816406 96.117188 C 181.445312 95.140625 181.820312 94.027344 182.332031 92.988281 C 183.445312 90.71875 185.523438 88.453125 187.679688 87.125 C 189.632812 88.703125 191.289062 90.640625 192.542969 92.8125 C 193.566406 94.585938 194.339844 96.539062 195.746094 98.027344 C 195.949219 97.960938 196.210938 97.941406 196.425781 97.992188 C 196.640625 98.042969 196.832031 98.183594 196.910156 98.382812 C 197.03125 98.699219 196.851562 99.039062 196.78125 99.367188 C 196.675781 99.867188 196.910156 100.488281 197.28125 100.835938 C 197.644531 101.488281 198.140625 102.050781 198.578125 102.65625 C 199.019531 103.261719 199.417969 103.917969 199.542969 104.652344 C 199.644531 105.253906 199.640625 105.222656 199.550781 105.832031 L 199.578125 105.800781 C 200.445312 105.261719 201.582031 104.757812 202.574219 105.003906 C 203.351562 105.199219 203.96875 105.820312 204.332031 106.535156 C 204.695312 107.25 204.925781 108.171875 205.019531 108.96875 C 206.148438 108.671875 207.402344 108.863281 208.390625 109.480469 C 209.109375 109.925781 209.691406 110.578125 210.433594 110.988281 C 211.449219 111.546875 212.679688 111.3125 213.875 111.140625 C 214.164062 112.308594 214.828125 113.34375 215.539062 114.308594 C 216.246094 115.277344 217.019531 116.210938 217.570312 117.277344 C 218.121094 118.34375 218.410156 119.636719 218.140625 120.8125 C 219.515625 120.539062 221.023438 121.148438 221.824219 122.292969 C 222.621094 123.441406 222.671875 125.066406 221.941406 126.261719 C 221.820312 126.25 221.609375 126.601562 221.640625 126.71875 C 221.671875 126.835938 221.765625 126.921875 221.859375 127.003906 C 222.804688 127.796875 223.757812 128.59375 224.824219 129.214844 C 225.203125 129.4375 225.613281 129.640625 226.050781 129.671875 C 226.539062 129.703125 227.015625 129.515625 227.46875 129.332031 C 227.535156 130.3125 228.167969 131.25 229.035156 131.714844 C 229.789062 132.125 230.695312 132.179688 231.464844 132.566406 C 232.144531 132.910156 232.808594 133.539062 233.285156 134.136719 C 233.492188 134.574219 233.984375 134.8125 234.460938 134.867188 C 234.9375 134.921875 235.421875 134.828125 235.898438 134.777344 C 236.613281 134.699219 237.335938 134.699219 238.050781 134.792969 C 238.484375 134.847656 238.929688 134.941406 239.292969 135.191406 C 239.753906 135.53125 240.015625 136.09375 240.152344 136.660156 Z M 240.152344 136.660156 " fill-opacity="1" fill-rule="nonzero"/><path fill="#0081fb" d="M 81.433594 187.5 L 187.5 81.433594 L 293.566406 187.5 L 187.5 293.566406 Z M 81.433594 187.5 " fill-opacity="1" fill-rule="nonzero"/></g></g></g></g></g></g><g clip-path="url(#492b7d2082)"><g clip-path="url(#47388930df)"><g clip-path="url(#c47f74b2ae)"><g clip-path="url(#2add8ebf35)"><g clip-path="url(#3577b88000)"><path stroke-linecap="butt" transform="matrix(0.53033, -0.53033, 0.53033, 0.53033, 81.433982, 187.499988)" fill="none" stroke-linejoin="miter" d="M 0.00330562 31.999913 L 0.00330562 168.000125 C -0.000377232 185.674113 14.325902 200.000392 31.999889 199.996709 L 168.000102 199.996709 C 185.67409 200.000392 200.000369 185.674113 199.996686 168.000125 L 199.996686 31.999913 C 200.000369 14.325925 185.67409 -0.000354015 168.000102 0.00332883 L 31.999889 0.00332883 C 14.325902 -0.000354015 -0.000377232 14.325925 0.00330562 31.999913 Z M 0.00330562 31.999913 " stroke="#0081fb" stroke-width="8" stroke-opacity="1" stroke-miterlimit="4"/></g></g></g></g></g><g fill="#ffffff" fill-opacity="1"><g transform="translate(141.15234, 187.625028)"><g><path d="M 27.40625 0 L 21.46875 0 L 19.3125 -6.578125 L 8.375 -6.578125 L 6.234375 0 L 0.4375 0 L 10.296875 -28.5625 L 17.546875 -28.5625 Z M 13.578125 -22.59375 L 9.90625 -11.328125 L 17.75 -11.328125 L 14.0625 -22.59375 Z M 13.578125 -22.59375 "/></g></g></g><g fill="#ffffff" fill-opacity="1"><g transform="translate(168.981657, 187.625028)"><g><path d="M 15.609375 0.40625 C 12.972656 0.40625 10.648438 -0.140625 8.640625 -1.234375 C 6.640625 -2.328125 5.070312 -3.96875 3.9375 -6.15625 C 2.8125 -8.351562 2.25 -11.0625 2.25 -14.28125 C 2.25 -17.5 2.8125 -20.203125 3.9375 -22.390625 C 5.070312 -24.585938 6.640625 -26.234375 8.640625 -27.328125 C 10.648438 -28.421875 12.972656 -28.96875 15.609375 -28.96875 C 18.359375 -28.96875 20.691406 -28.429688 22.609375 -27.359375 C 24.523438 -26.285156 25.894531 -24.644531 26.71875 -22.4375 L 22.59375 -19.921875 L 22.109375 -19.9375 C 21.492188 -21.425781 20.660156 -22.492188 19.609375 -23.140625 C 18.566406 -23.785156 17.234375 -24.109375 15.609375 -24.109375 C 13.234375 -24.109375 11.378906 -23.320312 10.046875 -21.75 C 8.722656 -20.175781 8.0625 -17.6875 8.0625 -14.28125 C 8.0625 -10.882812 8.722656 -8.398438 10.046875 -6.828125 C 11.378906 -5.253906 13.234375 -4.46875 15.609375 -4.46875 C 19.316406 -4.46875 21.585938 -6.273438 22.421875 -9.890625 L 22.90625 -9.890625 L 27.078125 -7.71875 C 26.296875 -5.007812 24.957031 -2.976562 23.0625 -1.625 C 21.175781 -0.269531 18.691406 0.40625 15.609375 0.40625 Z M 15.609375 0.40625 "/></g></g></g><g fill="#ffffff" fill-opacity="1"><g transform="translate(196.986733, 187.625028)"><g><path d="M 8.890625 0 L 3.71875 0 L 3.71875 -28.5625 L 11.09375 -28.5625 L 18.328125 -7.5625 L 18.734375 -7.5625 L 25.921875 -28.5625 L 33.125 -28.5625 L 33.125 0 L 27.78125 0 L 27.78125 -18.875 L 27.28125 -18.953125 L 20.6875 0 L 15.984375 0 L 9.375 -18.953125 L 8.890625 -18.875 Z M 8.890625 0 "/></g></g></g><g fill="#ffffff" fill-opacity="1"><g transform="translate(161.144526, 221.375025)"><g><path d="M 9.640625 3.0625 C 7.878906 3.0625 6.351562 2.71875 5.0625 2.03125 C 3.78125 1.34375 2.789062 0.351562 2.09375 -0.9375 C 1.40625 -2.238281 1.0625 -3.789062 1.0625 -5.59375 C 1.0625 -7.269531 1.410156 -8.765625 2.109375 -10.078125 C 2.816406 -11.398438 3.832031 -12.429688 5.15625 -13.171875 C 6.476562 -13.910156 8.035156 -14.28125 9.828125 -14.28125 C 11.597656 -14.28125 13.113281 -13.941406 14.375 -13.265625 C 15.632812 -12.597656 16.585938 -11.648438 17.234375 -10.421875 C 17.890625 -9.191406 18.21875 -7.75 18.21875 -6.09375 C 18.21875 -5.082031 18.0625 -4.195312 17.75 -3.4375 C 17.4375 -2.675781 16.992188 -2.085938 16.421875 -1.671875 C 15.847656 -1.253906 15.175781 -1.046875 14.40625 -1.046875 C 13.019531 -1.046875 12.113281 -1.554688 11.6875 -2.578125 L 11.5 -2.578125 C 11.238281 -2.046875 10.894531 -1.65625 10.46875 -1.40625 C 10.039062 -1.164062 9.507812 -1.046875 8.875 -1.046875 C 8.144531 -1.046875 7.507812 -1.21875 6.96875 -1.5625 C 6.425781 -1.90625 6.003906 -2.410156 5.703125 -3.078125 C 5.410156 -3.753906 5.265625 -4.570312 5.265625 -5.53125 C 5.265625 -6.488281 5.414062 -7.304688 5.71875 -7.984375 C 6.03125 -8.660156 6.453125 -9.171875 6.984375 -9.515625 C 7.523438 -9.867188 8.144531 -10.046875 8.84375 -10.046875 C 9.382812 -10.046875 9.832031 -9.945312 10.1875 -9.75 C 10.550781 -9.5625 10.863281 -9.253906 11.125 -8.828125 L 11.3125 -8.859375 L 11.3125 -9.875 L 13.75 -9.875 L 13.75 -4.125 C 13.75 -3.332031 14.039062 -2.9375 14.625 -2.9375 C 15.039062 -2.9375 15.375 -3.1875 15.625 -3.6875 C 15.882812 -4.195312 16.015625 -5 16.015625 -6.09375 C 16.015625 -8.050781 15.5 -9.5625 14.46875 -10.625 C 13.445312 -11.695312 11.898438 -12.234375 9.828125 -12.234375 C 8.546875 -12.234375 7.414062 -11.960938 6.4375 -11.421875 C 5.46875 -10.890625 4.710938 -10.125 4.171875 -9.125 C 3.640625 -8.125 3.375 -6.945312 3.375 -5.59375 C 3.375 -3.40625 3.914062 -1.757812 5 -0.65625 C 6.082031 0.445312 7.628906 1 9.640625 1 C 10.304688 1 10.921875 0.929688 11.484375 0.796875 C 12.054688 0.660156 12.550781 0.476562 12.96875 0.25 L 13.15625 0.25 L 13.796875 2.015625 C 13.578125 2.191406 13.25 2.359375 12.8125 2.515625 C 12.382812 2.679688 11.894531 2.8125 11.34375 2.90625 C 10.789062 3.007812 10.222656 3.0625 9.640625 3.0625 Z M 9.546875 -3.109375 C 10.085938 -3.109375 10.507812 -3.304688 10.8125 -3.703125 C 11.113281 -4.109375 11.265625 -4.71875 11.265625 -5.53125 C 11.265625 -6.351562 11.113281 -6.960938 10.8125 -7.359375 C 10.507812 -7.753906 10.085938 -7.953125 9.546875 -7.953125 C 8.972656 -7.953125 8.539062 -7.757812 8.25 -7.375 C 7.957031 -7 7.8125 -6.382812 7.8125 -5.53125 C 7.8125 -4.6875 7.957031 -4.070312 8.25 -3.6875 C 8.539062 -3.300781 8.972656 -3.109375 9.546875 -3.109375 Z M 9.546875 -3.109375 "/></g></g></g><g fill="#ffffff" fill-opacity="1"><g transform="translate(180.287435, 221.375025)"><g><path d="M 4.4375 0 L 1.859375 0 L 1.859375 -14.28125 L 5.546875 -14.28125 L 9.15625 -3.78125 L 9.359375 -3.78125 L 12.953125 -14.28125 L 16.5625 -14.28125 L 16.5625 0 L 13.890625 0 L 13.890625 -9.4375 L 13.640625 -9.46875 L 10.34375 0 L 7.984375 0 L 4.6875 -9.46875 L 4.4375 -9.4375 Z M 4.4375 0 "/></g></g></g><g fill="#ffffff" fill-opacity="1"><g transform="translate(198.70797, 221.375025)"><g><path d="M 7.5625 0.203125 C 5.601562 0.203125 4.144531 -0.257812 3.1875 -1.1875 C 2.238281 -2.125 1.765625 -3.515625 1.765625 -5.359375 L 1.765625 -14.28125 L 4.53125 -14.28125 L 4.53125 -5.375 C 4.53125 -4.332031 4.78125 -3.550781 5.28125 -3.03125 C 5.78125 -2.507812 6.539062 -2.25 7.5625 -2.25 C 9.59375 -2.25 10.609375 -3.289062 10.609375 -5.375 L 10.609375 -14.28125 L 13.375 -14.28125 L 13.375 -5.359375 C 13.375 -3.515625 12.894531 -2.125 11.9375 -1.1875 C 10.988281 -0.257812 9.53125 0.203125 7.5625 0.203125 Z M 7.5625 0.203125 "/></g></g></g></svg>