<svg xmlns="http://www.w3.org/2000/svg" xmlns:xlink="http://www.w3.org/1999/xlink" width="375" zoomAndPan="magnify" viewBox="0 0 281.25 281.249989" height="375" preserveAspectRatio="xMidYMid meet" version="1.0"><defs><g/><clipPath id="330c1ed1dd"><path d="M 13 16 L 267 16 L 267 270 L 13 270 Z M 13 16 " clip-rule="nonzero"/></clipPath><clipPath id="ebcb797016"><path d="M 140.25 5.464844 L 277.769531 142.984375 L 140.25 280.503906 L 2.730469 142.984375 Z M 140.25 5.464844 " clip-rule="nonzero"/></clipPath><clipPath id="b03ca48ffd"><path d="M 159.292969 24.503906 L 258.730469 123.941406 C 263.777344 128.992188 266.617188 135.839844 266.617188 142.984375 C 266.617188 150.125 263.777344 156.972656 258.730469 162.023438 L 159.292969 261.460938 C 154.242188 266.511719 147.394531 269.347656 140.25 269.347656 C 133.109375 269.347656 126.261719 266.511719 121.210938 261.460938 L 21.773438 162.023438 C 11.257812 151.507812 11.257812 134.457031 21.773438 123.941406 L 121.210938 24.503906 C 131.726562 13.988281 148.777344 13.988281 159.292969 24.503906 Z M 159.292969 24.503906 " clip-rule="nonzero"/></clipPath></defs><g clip-path="url(#330c1ed1dd)"><g clip-path="url(#ebcb797016)"><g clip-path="url(#b03ca48ffd)"><path fill="#0081fb" d="M 140.25 5.464844 L 277.769531 142.984375 L 140.25 280.503906 L 2.730469 142.984375 Z M 140.25 5.464844 " fill-opacity="1" fill-rule="nonzero"/></g></g></g><g fill="#ffffff" fill-opacity="1"><g transform="translate(105.57978, 138.530595)"><g><path d="M 20.5 0 L 16.0625 0 L 14.453125 -4.921875 L 6.265625 -4.921875 L 4.65625 0 L 0.328125 0 L 7.703125 -21.359375 L 13.125 -21.359375 Z M 10.15625 -16.90625 L 7.40625 -8.46875 L 13.28125 -8.46875 L 10.515625 -16.90625 Z M 10.15625 -16.90625 "/></g></g><g transform="translate(126.398285, 138.530595)"><g><path d="M 11.671875 0.3125 C 9.703125 0.3125 7.96875 -0.09375 6.46875 -0.90625 C 4.96875 -1.726562 3.796875 -2.960938 2.953125 -4.609375 C 2.109375 -6.253906 1.6875 -8.28125 1.6875 -10.6875 C 1.6875 -13.082031 2.109375 -15.101562 2.953125 -16.75 C 3.796875 -18.394531 4.96875 -19.625 6.46875 -20.4375 C 7.96875 -21.257812 9.703125 -21.671875 11.671875 -21.671875 C 13.722656 -21.671875 15.46875 -21.265625 16.90625 -20.453125 C 18.34375 -19.648438 19.367188 -18.425781 19.984375 -16.78125 L 16.90625 -14.90625 L 16.53125 -14.921875 C 16.082031 -16.023438 15.460938 -16.816406 14.671875 -17.296875 C 13.890625 -17.785156 12.890625 -18.03125 11.671875 -18.03125 C 9.898438 -18.03125 8.515625 -17.441406 7.515625 -16.265625 C 6.523438 -15.097656 6.03125 -13.238281 6.03125 -10.6875 C 6.03125 -8.132812 6.523438 -6.269531 7.515625 -5.09375 C 8.515625 -3.925781 9.898438 -3.34375 11.671875 -3.34375 C 14.453125 -3.34375 16.148438 -4.691406 16.765625 -7.390625 L 17.140625 -7.390625 L 20.25 -5.765625 C 19.664062 -3.742188 18.664062 -2.222656 17.25 -1.203125 C 15.84375 -0.191406 13.984375 0.3125 11.671875 0.3125 Z M 11.671875 0.3125 "/></g></g><g transform="translate(147.348276, 138.530595)"><g><path d="M 6.640625 0 L 2.78125 0 L 2.78125 -21.359375 L 8.296875 -21.359375 L 13.703125 -5.65625 L 14.015625 -5.65625 L 19.390625 -21.359375 L 24.78125 -21.359375 L 24.78125 0 L 20.78125 0 L 20.78125 -14.109375 L 20.40625 -14.171875 L 15.46875 0 L 11.953125 0 L 7.015625 -14.171875 L 6.640625 -14.109375 Z M 6.640625 0 "/></g></g></g><g fill="#ffffff" fill-opacity="1"><g transform="translate(116.589482, 166.954795)"><g><path d="M 8.65625 2.75 C 7.070312 2.75 5.703125 2.4375 4.546875 1.8125 C 3.390625 1.195312 2.5 0.3125 1.875 -0.84375 C 1.257812 -2.007812 0.953125 -3.398438 0.953125 -5.015625 C 0.953125 -6.523438 1.265625 -7.867188 1.890625 -9.046875 C 2.523438 -10.234375 3.4375 -11.15625 4.625 -11.8125 C 5.8125 -12.476562 7.207031 -12.8125 8.8125 -12.8125 C 10.414062 -12.8125 11.78125 -12.507812 12.90625 -11.90625 C 14.03125 -11.3125 14.882812 -10.460938 15.46875 -9.359375 C 16.050781 -8.253906 16.34375 -6.957031 16.34375 -5.46875 C 16.34375 -4.5625 16.203125 -3.765625 15.921875 -3.078125 C 15.648438 -2.398438 15.253906 -1.875 14.734375 -1.5 C 14.222656 -1.125 13.625 -0.9375 12.9375 -0.9375 C 11.6875 -0.9375 10.867188 -1.394531 10.484375 -2.3125 L 10.3125 -2.3125 C 10.082031 -1.84375 9.773438 -1.492188 9.390625 -1.265625 C 9.003906 -1.046875 8.53125 -0.9375 7.96875 -0.9375 C 7.3125 -0.9375 6.738281 -1.085938 6.25 -1.390625 C 5.769531 -1.703125 5.394531 -2.160156 5.125 -2.765625 C 4.851562 -3.367188 4.71875 -4.101562 4.71875 -4.96875 C 4.71875 -5.820312 4.851562 -6.550781 5.125 -7.15625 C 5.40625 -7.769531 5.785156 -8.234375 6.265625 -8.546875 C 6.753906 -8.859375 7.3125 -9.015625 7.9375 -9.015625 C 8.425781 -9.015625 8.832031 -8.925781 9.15625 -8.75 C 9.476562 -8.582031 9.753906 -8.304688 9.984375 -7.921875 L 10.15625 -7.953125 L 10.15625 -8.859375 L 12.34375 -8.859375 L 12.34375 -3.703125 C 12.34375 -2.992188 12.601562 -2.640625 13.125 -2.640625 C 13.5 -2.640625 13.800781 -2.863281 14.03125 -3.3125 C 14.257812 -3.769531 14.375 -4.488281 14.375 -5.46875 C 14.375 -7.226562 13.910156 -8.585938 12.984375 -9.546875 C 12.066406 -10.503906 10.675781 -10.984375 8.8125 -10.984375 C 7.664062 -10.984375 6.65625 -10.738281 5.78125 -10.25 C 4.90625 -9.769531 4.226562 -9.082031 3.75 -8.1875 C 3.269531 -7.289062 3.03125 -6.234375 3.03125 -5.015625 C 3.03125 -3.046875 3.515625 -1.566406 4.484375 -0.578125 C 5.453125 0.398438 6.84375 0.890625 8.65625 0.890625 C 9.25 0.890625 9.800781 0.828125 10.3125 0.703125 C 10.820312 0.585938 11.265625 0.425781 11.640625 0.21875 L 11.8125 0.21875 L 12.390625 1.8125 C 12.191406 1.96875 11.898438 2.117188 11.515625 2.265625 C 11.128906 2.410156 10.6875 2.523438 10.1875 2.609375 C 9.6875 2.703125 9.175781 2.75 8.65625 2.75 Z M 8.5625 -2.796875 C 9.050781 -2.796875 9.429688 -2.972656 9.703125 -3.328125 C 9.972656 -3.679688 10.109375 -4.226562 10.109375 -4.96875 C 10.109375 -5.707031 9.972656 -6.253906 9.703125 -6.609375 C 9.429688 -6.960938 9.050781 -7.140625 8.5625 -7.140625 C 8.050781 -7.140625 7.664062 -6.96875 7.40625 -6.625 C 7.144531 -6.289062 7.015625 -5.738281 7.015625 -4.96875 C 7.015625 -4.207031 7.144531 -3.65625 7.40625 -3.3125 C 7.664062 -2.96875 8.050781 -2.796875 8.5625 -2.796875 Z M 8.5625 -2.796875 "/></g></g><g transform="translate(133.778994, 166.954795)"><g><path d="M 3.984375 0 L 1.671875 0 L 1.671875 -12.8125 L 4.984375 -12.8125 L 8.21875 -3.390625 L 8.40625 -3.390625 L 11.625 -12.8125 L 14.875 -12.8125 L 14.875 0 L 12.46875 0 L 12.46875 -8.46875 L 12.25 -8.5 L 9.28125 0 L 7.171875 0 L 4.203125 -8.5 L 3.984375 -8.46875 Z M 3.984375 0 "/></g></g><g transform="translate(150.319844, 166.954795)"><g><path d="M 6.796875 0.1875 C 5.023438 0.1875 3.710938 -0.226562 2.859375 -1.0625 C 2.015625 -1.90625 1.59375 -3.148438 1.59375 -4.796875 L 1.59375 -12.8125 L 4.0625 -12.8125 L 4.0625 -4.828125 C 4.0625 -3.890625 4.285156 -3.1875 4.734375 -2.71875 C 5.191406 -2.25 5.878906 -2.015625 6.796875 -2.015625 C 8.609375 -2.015625 9.515625 -2.953125 9.515625 -4.828125 L 9.515625 -12.8125 L 12 -12.8125 L 12 -4.796875 C 12 -3.148438 11.570312 -1.90625 10.71875 -1.0625 C 9.863281 -0.226562 8.554688 0.1875 6.796875 0.1875 Z M 6.796875 0.1875 "/></g></g></g></svg>